<svg width="152" height="111" viewBox="0 0 152 111" fill="none" xmlns="http://www.w3.org/2000/svg">
<path d="M75.2289 99.1828C113.601 99.877 145.387 69.1358 146.083 30.6546C146.779 -7.82653 116.127 -39.6974 77.7541 -40.3916L77.3702 -19.1704C104.075 -18.6872 125.406 3.49295 124.921 30.2718C124.437 57.0506 102.317 78.4447 75.6129 77.9615C58.6137 77.654 43.0942 68.3646 34.6399 53.8591L48.4949 48.934L11.8776 20.6882L0.761423 65.9021L14.4452 61.0376C26.0518 83.8831 49.4563 98.7165 75.2289 99.1828Z" fill="#EFB420"/>
<mask id="mask0_1588_13812" style="mask-type:luminance" maskUnits="userSpaceOnUse" x="0" y="-41" width="147" height="141">
<path d="M75.2289 99.1828C113.601 99.877 145.387 69.1358 146.083 30.6546C146.779 -7.82653 116.127 -39.6974 77.7541 -40.3916L77.3702 -19.1704C104.075 -18.6872 125.406 3.49295 124.921 30.2718C124.437 57.0506 102.317 78.4447 75.6129 77.9615C58.6137 77.654 43.0942 68.3646 34.6399 53.8591L48.4949 48.934L11.8776 20.6882L0.761423 65.9021L14.4452 61.0376C26.0518 83.8831 49.4563 98.7165 75.2289 99.1828Z" fill="white"/>
</mask>
<g mask="url(#mask0_1588_13812)">
<path d="M71.7407 -19.0804C85.1872 -15.3321 98.0387 -9.29726 106.651 2.17396C114.844 13.0849 116.66 27.03 112.936 39.5565C109.125 52.3801 99.4701 62.0482 86.8547 65.4477C73.5784 69.0254 61.0599 65.5982 50.5661 55.6968C37.16 43.0468 28.9049 26.2365 20.7705 9.95198C15.3622 12.992 9.95386 16.032 4.54554 19.072C9.06879 27.9006 15.4234 35.87 22.238 43.0284C29.2265 50.3693 36.7261 57.6699 46.0865 61.7492C52.0055 64.3281 57.9176 56.1506 54.6226 51.0214C49.5974 43.1987 42.0648 37.5934 35.7151 30.9104C29.6847 24.5641 24.7595 17.7614 20.7705 9.95198C15.3042 -0.749205 -0.794122 8.34947 4.54554 19.072C13.3434 36.7381 22.6068 54.9732 37.1312 68.6899C51.4999 82.26 69.7795 88.459 89.322 84.1699C107.894 80.0936 122.376 66.7586 129.069 49.0976C135.475 32.1987 133.479 11.7678 123.552 -3.36195C112.381 -20.3862 92.5689 -32.1961 71.9336 -29.739C66.3345 -29.0713 66.8628 -20.44 71.7407 -19.0804Z" fill="#E29E05"/>
</g>
<mask id="mask1_1588_13812" style="mask-type:luminance" maskUnits="userSpaceOnUse" x="0" y="-41" width="147" height="141">
<path d="M75.2289 99.1828C113.601 99.877 145.387 69.1358 146.083 30.6546C146.779 -7.82653 116.127 -39.6974 77.7541 -40.3916L77.3702 -19.1704C104.075 -18.6872 125.406 3.49295 124.921 30.2718C124.437 57.0506 102.317 78.4447 75.6129 77.9615C58.6137 77.654 43.0942 68.3646 34.6399 53.8591L48.4949 48.934L11.8776 20.6882L0.761423 65.9021L14.4452 61.0376C26.0518 83.8831 49.4563 98.7165 75.2289 99.1828Z" fill="white"/>
</mask>
<g mask="url(#mask1_1588_13812)">
<path d="M76.3535 -40.1645C84.1956 -37.84 92.1099 -36.166 99.7528 -33.1454C107.754 -29.9831 115.469 -25.7827 122.148 -20.3171C127.866 -15.6378 132.903 -10.0384 136.799 -3.74722C138.855 -0.429102 140.61 3.07309 141.973 6.73328C143.331 10.3792 143.837 14.2141 145.059 17.8757C145.623 19.5645 148.217 19.4212 148.26 17.5004C148.428 10.0429 144.444 1.72174 140.717 -4.54747C136.552 -11.5526 131.11 -17.7475 124.807 -22.8895C111.717 -33.5698 93.6194 -41.2956 76.607 -41.8235C75.6526 -41.8542 75.4388 -40.435 76.3535 -40.1645Z" fill="#FFD47D"/>
</g>
<mask id="mask2_1588_13812" style="mask-type:luminance" maskUnits="userSpaceOnUse" x="0" y="-41" width="147" height="141">
<path d="M75.2289 99.1828C113.601 99.877 145.387 69.1358 146.083 30.6546C146.779 -7.82653 116.127 -39.6974 77.7541 -40.3916L77.3702 -19.1704C104.075 -18.6872 125.406 3.49295 124.921 30.2718C124.437 57.0506 102.317 78.4447 75.6129 77.9615C58.6137 77.654 43.0942 68.3646 34.6399 53.8591L48.4949 48.934L11.8776 20.6882L0.761423 65.9021L14.4452 61.0376C26.0518 83.8831 49.4563 98.7165 75.2289 99.1828Z" fill="white"/>
</mask>
<g mask="url(#mask2_1588_13812)">
<path d="M81.306 92.9038C73.1531 93.5889 64.883 92.9487 57.0104 90.6614C48.8244 88.282 42.4599 83.8033 35.1618 79.7063C34.4462 79.3042 33.8047 80.181 34.2963 80.7906C39.4691 87.2102 48.4479 91.2361 56.1776 93.4894C64.4587 95.9035 73.0532 96.3342 81.515 94.6994C82.5063 94.5082 82.3362 92.8171 81.306 92.9038Z" fill="#FFD47D"/>
</g>
<mask id="mask3_1588_13812" style="mask-type:luminance" maskUnits="userSpaceOnUse" x="0" y="-41" width="147" height="141">
<path d="M75.2289 99.1828C113.601 99.877 145.387 69.1358 146.083 30.6546C146.779 -7.82653 116.127 -39.6974 77.7541 -40.3916L77.3702 -19.1704C104.075 -18.6872 125.406 3.49295 124.921 30.2718C124.437 57.0506 102.317 78.4447 75.6129 77.9615C58.6137 77.654 43.0942 68.3646 34.6399 53.8591L48.4949 48.934L11.8776 20.6882L0.761423 65.9021L14.4452 61.0376C26.0518 83.8831 49.4563 98.7165 75.2289 99.1828Z" fill="white"/>
</mask>
<g mask="url(#mask3_1588_13812)">
<path d="M28.2975 73.3671C25.2066 70.6065 23.2839 67.246 21.3284 63.6521C20.8033 62.6874 19.2415 63.2952 19.5357 64.3721C20.6951 68.6285 23.8247 72.0612 27.3293 74.5792C28.0444 75.0938 28.961 73.9593 28.2975 73.3671Z" fill="#FFD47D"/>
</g>
<mask id="mask4_1588_13812" style="mask-type:luminance" maskUnits="userSpaceOnUse" x="0" y="-41" width="147" height="141">
<path d="M75.2289 99.1828C113.601 99.877 145.387 69.1358 146.083 30.6546C146.779 -7.82653 116.127 -39.6974 77.7541 -40.3916L77.3702 -19.1704C104.075 -18.6872 125.406 3.49295 124.921 30.2718C124.437 57.0506 102.317 78.4447 75.6129 77.9615C58.6137 77.654 43.0942 68.3646 34.6399 53.8591L48.4949 48.934L11.8776 20.6882L0.761423 65.9021L14.4452 61.0376C26.0518 83.8831 49.4563 98.7165 75.2289 99.1828Z" fill="white"/>
</mask>
<g mask="url(#mask4_1588_13812)">
<path d="M139.344 24.6455C140.582 40.5387 134.821 54.9318 124.698 66.9407C123.644 68.1906 125.22 69.9181 126.483 68.797C138.7 57.955 143.618 40.2972 141.026 24.4479C140.871 23.5056 139.268 23.6794 139.344 24.6455Z" fill="#FFD47D"/>
</g>
<path d="M149.263 94.8207C149.263 94.8207 130.85 94.0324 127.376 80.2993C127.376 80.2993 121.595 94.2738 107.344 94.3257C107.344 94.3257 121.116 94.497 127.364 107.438C127.364 107.438 131.032 95.4957 149.263 94.8207Z" fill="#EFB420"/>
<path d="M116.979 104.245C116.979 104.245 108.708 103.891 107.148 97.7226C107.148 97.7226 104.551 104 98.1499 104.023C98.1499 104.023 104.336 104.1 107.143 109.913C107.143 109.913 108.79 104.548 116.979 104.245Z" fill="#EFB420"/>
</svg>
