<svg width="156" height="97" viewBox="0 0 156 97" fill="none" xmlns="http://www.w3.org/2000/svg">
<path d="M145.849 73.9428C145.849 35.564 114.538 4.33984 76.0506 4.33984C37.5631 4.33984 6.25195 35.564 6.25195 73.9428H27.4767C27.4767 47.2339 49.2674 25.5051 76.0506 25.5051C102.834 25.5051 124.624 47.2339 124.624 73.9428C124.624 90.9448 115.617 106.63 101.267 115.345L96.0922 101.581L68.5134 138.704L113.921 149L108.81 135.407C131.442 123.389 145.849 99.7197 145.849 73.9428Z" fill="#EFB420"/>
<mask id="mask0_1588_13851" style="mask-type:luminance" maskUnits="userSpaceOnUse" x="6" y="4" width="140" height="146">
<path d="M145.849 73.9428C145.849 35.564 114.538 4.33984 76.0506 4.33984C37.5631 4.33984 6.25195 35.564 6.25195 73.9428H27.4767C27.4767 47.2339 49.2674 25.5051 76.0506 25.5051C102.834 25.5051 124.624 47.2339 124.624 73.9428C124.624 90.9448 115.617 106.63 101.267 115.345L96.0922 101.581L68.5134 138.704L113.921 149L108.81 135.407C131.442 123.389 145.849 99.7197 145.849 73.9428Z" fill="white"/>
</mask>
<g mask="url(#mask0_1588_13851)">
<path d="M27.6682 79.5699C31.1726 66.0579 36.974 53.0993 48.2876 44.2804C59.0485 35.8919 72.9585 33.824 85.5503 37.3202C98.4407 40.8995 108.282 50.3776 111.909 62.9293C115.726 76.1388 112.526 88.7172 102.816 99.3884C90.4107 113.021 73.7525 121.579 57.6178 130.007C60.7551 135.359 63.8924 140.712 67.0298 146.064C75.7751 141.382 83.6283 134.884 90.6623 127.941C97.8755 120.821 105.039 113.19 108.949 103.758C111.42 97.7932 103.137 92.0299 98.0681 95.4172C90.3376 100.583 84.8695 108.216 78.3024 114.685C72.0663 120.83 65.3538 125.877 57.6178 130.007C47.0172 135.666 56.4056 151.597 67.0298 146.064C84.5339 136.948 102.598 127.356 116.05 112.586C129.358 97.9742 135.225 79.5856 130.584 60.1238C126.172 41.6285 112.577 27.3906 94.798 21.0175C77.786 14.9188 57.3945 17.2838 42.4468 27.4831C25.6274 38.9601 14.1779 58.9824 17.0079 79.5699C17.7767 85.1559 26.397 84.4716 27.6682 79.5699Z" fill="#E29E05"/>
</g>
<mask id="mask1_1588_13851" style="mask-type:luminance" maskUnits="userSpaceOnUse" x="6" y="4" width="140" height="146">
<path d="M145.849 73.9428C145.849 35.564 114.538 4.33984 76.0506 4.33984C37.5631 4.33984 6.25195 35.564 6.25195 73.9428H27.4767C27.4767 47.2339 49.2674 25.5051 76.0506 25.5051C102.834 25.5051 124.624 47.2339 124.624 73.9428C124.624 90.9448 115.617 106.63 101.267 115.345L96.0922 101.581L68.5134 138.704L113.921 149L108.81 135.407C131.442 123.389 145.849 99.7197 145.849 73.9428Z" fill="white"/>
</mask>
<g mask="url(#mask1_1588_13851)">
<path d="M6.5043 75.3389C8.68651 67.456 10.2171 59.5128 13.0989 51.8165C16.116 43.7596 20.1762 35.97 25.5201 29.1932C30.0952 23.3916 35.6026 18.2539 41.8222 14.2443C45.1026 12.1294 48.5724 10.3107 52.2074 8.88167C55.8282 7.45811 59.6533 6.88273 63.2922 5.59479C64.9705 5.0006 64.7803 2.40982 62.859 2.4012C55.3997 2.36827 47.152 6.50176 40.9512 10.3421C34.0225 14.6323 27.9271 20.1862 22.9 26.5813C12.4582 39.8621 5.06102 58.0963 4.84091 75.1155C4.82755 76.0703 6.25039 76.2584 6.5043 75.3389Z" fill="#FFD47D"/>
</g>
<mask id="mask2_1588_13851" style="mask-type:luminance" maskUnits="userSpaceOnUse" x="6" y="4" width="140" height="146">
<path d="M145.849 73.9428C145.849 35.564 114.538 4.33984 76.0506 4.33984C37.5631 4.33984 6.25195 35.564 6.25195 73.9428H27.4767C27.4767 47.2339 49.2674 25.5051 76.0506 25.5051C102.834 25.5051 124.624 47.2339 124.624 73.9428C124.624 90.9448 115.617 106.63 101.267 115.345L96.0922 101.581L68.5134 138.704L113.921 149L108.81 135.407C131.442 123.389 145.849 99.7197 145.849 73.9428Z" fill="white"/>
</mask>
<g mask="url(#mask2_1588_13851)">
<path d="M139.462 67.9799C140.294 76.1191 139.804 84.3994 137.659 92.3121C135.428 100.54 131.066 106.984 127.101 114.355C126.712 115.078 127.6 115.704 128.201 115.201C134.526 109.913 138.389 100.863 140.502 93.0936C142.766 84.7702 143.041 76.1693 141.253 67.7385C141.044 66.7508 139.357 66.9515 139.462 67.9799Z" fill="#FFD47D"/>
</g>
<mask id="mask3_1588_13851" style="mask-type:luminance" maskUnits="userSpaceOnUse" x="6" y="4" width="140" height="146">
<path d="M145.849 73.9428C145.849 35.564 114.538 4.33984 76.0506 4.33984C37.5631 4.33984 6.25195 35.564 6.25195 73.9428H27.4767C27.4767 47.2339 49.2674 25.5051 76.0506 25.5051C102.834 25.5051 124.624 47.2339 124.624 73.9428C124.624 90.9448 115.617 106.63 101.267 115.345L96.0922 101.581L68.5134 138.704L113.921 149L108.81 135.407C131.442 123.389 145.849 99.7197 145.849 73.9428Z" fill="white"/>
</mask>
<g mask="url(#mask3_1588_13851)">
<path d="M70.1642 11.1867C86.0324 9.66122 100.527 15.1603 112.717 25.0648C113.986 26.0956 115.685 24.4886 114.541 23.2462C103.48 11.2275 85.736 6.6299 69.9362 9.50837C68.9968 9.68004 69.1996 11.2792 70.1642 11.1867Z" fill="#FFD47D"/>
</g>
<path d="M140.148 0C140.148 0 139.693 18.4239 126.025 22.1467C126.025 22.1467 140.102 27.6731 140.412 41.9212C140.412 41.9212 140.334 28.1482 153.16 21.6677C153.16 21.6677 141.153 18.2162 140.148 0Z" fill="#EFB420"/>
<path d="M14.1231 93.0378C14.1231 93.0378 13.6679 111.462 0 115.184C0 115.184 14.0767 120.712 14.3864 134.959C14.3864 134.959 14.3086 121.186 27.1346 114.706C27.1346 114.706 15.1285 111.254 14.1231 93.0378Z" fill="#EFB420"/>
<path d="M150.155 32.108C150.155 32.108 149.951 40.3836 143.812 42.0557C143.812 42.0557 150.135 44.5383 150.274 50.938C150.274 50.938 150.239 44.7515 156 41.8401C156 41.8401 150.607 40.2903 150.155 32.108Z" fill="#EFB420"/>
</svg>
