<svg width="148" height="67" viewBox="0 0 148 67" fill="none" xmlns="http://www.w3.org/2000/svg">
<path d="M10.2296 41.3703V58.1629H7.9707V41.3703H10.2296ZM14.4488 52.1712H9.72206V50.1273H13.9612C15.0856 50.1273 15.9414 49.8267 16.5484 49.2055C17.1454 48.5943 17.444 47.7727 17.444 46.7307C17.444 45.6886 17.1454 44.857 16.5484 44.2759C15.9513 43.6948 15.1155 43.4042 14.0607 43.4042H9.21457V41.3602H14.4488C15.5434 41.3602 16.4887 41.5807 17.2848 42.0316C18.0808 42.4824 18.7077 43.1036 19.1555 43.9152C19.6033 44.7168 19.8222 45.6686 19.8222 46.7507C19.8222 47.8328 19.6033 48.7145 19.1555 49.5361C18.7077 50.3577 18.0908 50.999 17.2848 51.4598C16.4887 51.9207 15.5434 52.1612 14.4488 52.1612V52.1712Z" fill="#0F1613"/>
<path d="M24.6385 58.1628H22.3796V41.3703H28.6786C30.4598 41.3703 31.8529 41.8111 32.8679 42.7029C33.8729 43.5946 34.3804 44.827 34.3804 46.41C34.3804 47.5723 34.1018 48.5542 33.5346 49.3558C32.9774 50.1573 32.1813 50.7384 31.1464 51.0691L34.5397 58.1528H32.0221L28.9074 51.5099H24.6385V58.1528V58.1628ZM24.6385 43.4142V49.496H28.6985C29.7433 49.496 30.5593 49.2255 31.1364 48.6845C31.7136 48.1434 32.0022 47.392 32.0022 46.4301C32.0022 45.4682 31.7036 44.7067 31.1165 44.1857C30.5294 43.6647 29.7135 43.4042 28.6885 43.4042H24.6484L24.6385 43.4142Z" fill="#0F1613"/>
<path d="M52.4313 49.7565C52.4313 51.4598 52.093 52.9628 51.4064 54.2753C50.7198 55.5879 49.7744 56.6098 48.5704 57.3413C47.3663 58.0727 45.9632 58.4434 44.381 58.4434C42.7988 58.4434 41.4455 58.0727 40.2414 57.3413C39.0374 56.6098 38.092 55.5879 37.4154 54.2853C36.7387 52.9828 36.4004 51.4799 36.4004 49.7565C36.4004 48.0332 36.7387 46.5503 37.4253 45.2478C38.1119 43.9453 39.0473 42.9233 40.2514 42.1818C41.4555 41.4404 42.8386 41.0697 44.4009 41.0697C45.9632 41.0697 47.3763 41.4404 48.5704 42.1818C49.7645 42.9233 50.7098 43.9453 51.3964 45.2478C52.083 46.5503 52.4214 48.0532 52.4214 49.7565H52.4313ZM50.053 49.7565C50.053 48.454 49.8142 47.3218 49.3465 46.3399C48.8788 45.368 48.2221 44.6065 47.3763 44.0755C46.5304 43.5445 45.5353 43.274 44.4009 43.274C43.2665 43.274 42.2913 43.5445 41.4455 44.0755C40.5997 44.6065 39.9429 45.368 39.4752 46.3399C39.0075 47.3118 38.7687 48.454 38.7687 49.7565C38.7687 51.0591 39.0075 52.1913 39.4752 53.1732C39.9429 54.1451 40.5997 54.9065 41.4455 55.4476C42.2913 55.9886 43.2765 56.2592 44.4009 56.2592C45.5254 56.2592 46.5304 55.9886 47.3763 55.4376C48.2221 54.8865 48.8788 54.125 49.3465 53.1531C49.8142 52.1812 50.053 51.049 50.053 49.7666V49.7565Z" fill="#0F1613"/>
<path d="M53.1179 43.4643V41.3703H65.4073V43.4643H53.1179ZM60.402 42.4223V58.1628H58.1431V42.4223H60.402Z" fill="#0F1613"/>
<path d="M77.8659 58.1629H67.696V41.3703H77.8659V43.4643H68.92L69.9549 42.5626V48.7145H77.0798V50.7384H69.9549V57.0106L68.92 56.0588H77.8659V58.1729V58.1629Z" fill="#0F1613"/>
<path d="M88.0558 58.4133C86.4736 58.4133 85.0904 58.0526 83.9062 57.3312C82.7221 56.6098 81.7966 55.6079 81.1399 54.3153C80.4732 53.0228 80.1448 51.5099 80.1448 49.7765C80.1448 48.0432 80.4831 46.5302 81.1598 45.2277C81.8364 43.9252 82.7818 42.9132 83.9858 42.1818C85.1899 41.4504 86.593 41.0897 88.1752 41.0897C89.4389 41.0897 90.5733 41.3302 91.5883 41.8011C92.6033 42.272 93.4491 42.9333 94.1258 43.7849C94.8025 44.6366 95.2403 45.6385 95.4393 46.7807H93.0213C92.7128 45.6786 92.1257 44.8269 91.25 44.2057C90.3743 43.5845 89.3295 43.2739 88.1155 43.2739C86.991 43.2739 86.0158 43.5444 85.17 44.0755C84.3341 44.6065 83.6873 45.358 83.2196 46.3299C82.7619 47.3017 82.533 48.444 82.533 49.7565C82.533 51.069 82.7619 52.1912 83.2196 53.1731C83.6773 54.145 84.3341 54.9065 85.1799 55.4375C86.0258 55.9686 87.001 56.2391 88.1055 56.2391C89.3394 56.2391 90.4042 55.9385 91.2998 55.3173C92.1953 54.6961 92.8023 53.8845 93.1108 52.8425H95.509C95.2801 53.9546 94.8124 54.9366 94.1159 55.7682C93.4193 56.5998 92.5436 57.251 91.5087 57.722C90.4738 58.1829 89.3195 58.4233 88.0657 58.4233L88.0558 58.4133Z" fill="#0F1613"/>
<path d="M95.7378 43.4643V41.3703H108.027V43.4643H95.7378ZM103.022 42.4223V58.1628H100.763V42.4223H103.022Z" fill="#0F1613"/>
<path d="M76.3334 28.2348C76.3334 31.8217 74.1442 32.6333 72.4327 32.6333C70.7211 32.6333 68.5319 31.8217 68.5319 28.2348V13.2657H28.5989V37.3124H42.7292V32.4029H33.9127V27.6236H41.0475V22.7842H33.9127V18.1753H50.063V37.3124H55.3768V18.1753H63.2181V28.2047C63.2181 34.3667 67.3179 37.6531 72.4327 37.6531C77.5474 37.6531 81.6472 34.3667 81.6472 28.2047V13.2657H76.3334V28.2348Z" fill="#2A9E69"/>
<path d="M100.295 21.5919C100.295 16.482 96.7925 13.2557 91.7175 13.2557H83.0403V37.3024H88.3541V29.5473H91.2498L95.9566 37.3024H101.579L96.1257 28.6356C98.713 27.3831 100.295 24.9785 100.295 21.5919ZM91.1801 24.9785H88.3541V18.1652H91.1801C93.3295 18.1652 94.9117 19.0169 94.9117 21.5819C94.9117 24.1469 93.3295 24.9684 91.1801 24.9684V24.9785Z" fill="#2A9E69"/>
<path d="M118.436 28.5354H118.267L108.276 13.2557H102.962V37.3124H108.276V22.0327H108.445L118.436 37.3124H123.75V13.2557H118.436V28.5354Z" fill="#2A9E69"/>
<path d="M135.979 23.215L134.367 22.5738C131.879 21.5618 131.272 20.7402 131.272 19.6982C131.272 18.3456 132.387 17.6643 133.83 17.6643C135.273 17.6643 136.517 18.4458 137.561 20.2693L141.502 18.035C140.358 15.4901 137.84 12.9251 133.631 12.9251C129.422 12.9251 126.028 15.47 126.028 19.6281C126.028 23.5256 128.954 25.2891 132.148 26.5716L133.631 27.1427C135.919 28.0544 136.696 28.7358 136.696 30.1585C136.696 32.0221 135.253 32.8036 133.671 32.8036C131.422 32.8036 130.138 31.2406 129.461 29.6175L125.153 31.6113C126.058 35.1382 129.521 37.643 133.73 37.643C137.94 37.643 142.208 35.2384 142.208 30.2286C142.208 26.9122 140.288 24.9484 135.989 23.215H135.979Z" fill="#2A9E69"/>
<path d="M25.2753 26.301C28.37 22.4636 27.2257 16.1814 22.9567 13.7367C21.4641 12.885 19.8819 12.4141 18.1604 12.4642C17.3046 12.4842 16.4488 12.4642 15.593 12.4642C15.5731 12.384 15.5433 12.2939 15.5234 12.2137C16.001 11.7628 16.4588 11.2919 16.9464 10.8711C17.2747 10.5905 17.225 10.3902 16.9464 10.1196C16.2697 9.46837 15.593 8.80709 14.9562 8.11575C14.588 7.70495 14.3691 7.77509 14.0108 8.13579C12.0804 10.1196 10.12 12.0834 8.1597 14.0272C7.80147 14.3879 7.84127 14.5783 8.1796 14.9089C10.1698 16.8828 12.1401 18.8666 14.0904 20.8605C14.4089 21.1911 14.6079 21.1811 14.9064 20.8605C15.5731 20.1491 16.2597 19.4578 16.9563 18.7965C17.2548 18.5059 17.2648 18.3055 16.9563 18.045C16.4588 17.6242 15.9712 17.1833 15.4836 16.7525C15.5433 16.6523 15.593 16.5521 15.6527 16.4519C16.5483 16.4519 17.4539 16.4319 18.3494 16.4519C20.9068 16.5221 22.8075 18.2254 23.0662 20.5399C23.912 28.365 8.71695 24.9083 8.71695 24.9083V37.2423H14.0307V29.4872H16.9265L21.6332 37.2423H27.2555L22.0014 28.886C23.2652 28.3149 24.3598 27.4533 25.3051 26.291L25.2753 26.301Z" fill="#2A9E69"/>
</svg>
