<svg width="148" height="67" viewBox="0 0 148 67" fill="none" xmlns="http://www.w3.org/2000/svg">
<path d="M10.2296 41.3704V58.163H7.9707V41.3704H10.2296ZM14.4488 52.1713H9.72206V50.1274H13.9612C15.0856 50.1274 15.9414 49.8268 16.5484 49.2056C17.1454 48.5944 17.444 47.7728 17.444 46.7308C17.444 45.6888 17.1454 44.8571 16.5484 44.276C15.9513 43.6949 15.1155 43.4043 14.0607 43.4043H9.21457V41.3604H14.4488C15.5434 41.3604 16.4887 41.5808 17.2848 42.0317C18.0808 42.4825 18.7077 43.1037 19.1555 43.9153C19.6033 44.7169 19.8222 45.6687 19.8222 46.7508C19.8222 47.8329 19.6033 48.7146 19.1555 49.5362C18.7077 50.3578 18.0908 50.9991 17.2848 51.4599C16.4887 51.9208 15.5434 52.1613 14.4488 52.1613V52.1713Z" fill="white"/>
<path d="M24.6385 58.1632H22.3796V41.3706H28.6786C30.4598 41.3706 31.8529 41.8115 32.8679 42.7032C33.8729 43.5949 34.3804 44.8273 34.3804 46.4104C34.3804 47.5726 34.1018 48.5545 33.5346 49.3561C32.9774 50.1577 32.1813 50.7388 31.1464 51.0694L34.5397 58.1532H32.0221L28.9074 51.5103H24.6385V58.1532V58.1632ZM24.6385 43.4146V49.4964H28.6985C29.7433 49.4964 30.5593 49.2258 31.1364 48.6848C31.7136 48.1437 32.0022 47.3923 32.0022 46.4304C32.0022 45.4686 31.7036 44.7071 31.1165 44.1861C30.5294 43.6651 29.7135 43.4046 28.6885 43.4046H24.6484L24.6385 43.4146Z" fill="white"/>
<path d="M52.4313 49.7567C52.4313 51.46 52.093 52.9629 51.4064 54.2754C50.7198 55.588 49.7744 56.61 48.5704 57.3414C47.3663 58.0728 45.9632 58.4435 44.381 58.4435C42.7988 58.4435 41.4455 58.0728 40.2414 57.3414C39.0374 56.61 38.092 55.588 37.4154 54.2855C36.7387 52.9829 36.4004 51.48 36.4004 49.7567C36.4004 48.0333 36.7387 46.5505 37.4253 45.2479C38.1119 43.9454 39.0473 42.9234 40.2514 42.182C41.4555 41.4405 42.8386 41.0698 44.4009 41.0698C45.9632 41.0698 47.3763 41.4405 48.5704 42.182C49.7645 42.9234 50.7098 43.9454 51.3964 45.2479C52.083 46.5505 52.4214 48.0534 52.4214 49.7567H52.4313ZM50.053 49.7567C50.053 48.4541 49.8142 47.322 49.3465 46.34C48.8788 45.3682 48.2221 44.6067 47.3763 44.0757C46.5304 43.5446 45.5353 43.2741 44.4009 43.2741C43.2665 43.2741 42.2913 43.5446 41.4455 44.0757C40.5997 44.6067 39.9429 45.3682 39.4752 46.34C39.0075 47.3119 38.7687 48.4541 38.7687 49.7567C38.7687 51.0592 39.0075 52.1914 39.4752 53.1733C39.9429 54.1452 40.5997 54.9067 41.4455 55.4477C42.2913 55.9888 43.2765 56.2593 44.4009 56.2593C45.5254 56.2593 46.5304 55.9888 47.3763 55.4377C48.2221 54.8866 48.8788 54.1252 49.3465 53.1533C49.8142 52.1814 50.053 51.0492 50.053 49.7667V49.7567Z" fill="white"/>
<path d="M53.1179 43.4647V41.3706H65.4073V43.4647H53.1179ZM60.402 42.4226V58.1632H58.1431V42.4226H60.402Z" fill="white"/>
<path d="M77.8659 58.1632H67.696V41.3706H77.8659V43.4647H68.92L69.9549 42.5629V48.7149H77.0798V50.7388H69.9549V57.011L68.92 56.0591H77.8659V58.1732V58.1632Z" fill="white"/>
<path d="M88.0558 58.4135C86.4736 58.4135 85.0904 58.0528 83.9062 57.3314C82.7221 56.61 81.7966 55.608 81.1399 54.3155C80.4732 53.023 80.1448 51.5101 80.1448 49.7767C80.1448 48.0433 80.4831 46.5304 81.1598 45.2279C81.8364 43.9253 82.7818 42.9134 83.9858 42.182C85.1899 41.4505 86.593 41.0898 88.1752 41.0898C89.4389 41.0898 90.5733 41.3303 91.5883 41.8012C92.6033 42.2721 93.4491 42.9334 94.1258 43.7851C94.8025 44.6367 95.2403 45.6387 95.4393 46.7809H93.0213C92.7128 45.6787 92.1257 44.8271 91.25 44.2059C90.3743 43.5847 89.3295 43.2741 88.1155 43.2741C86.991 43.2741 86.0158 43.5446 85.17 44.0756C84.3341 44.6067 83.6873 45.3581 83.2196 46.33C82.7619 47.3019 82.533 48.4441 82.533 49.7567C82.533 51.0692 82.7619 52.1914 83.2196 53.1733C83.6773 54.1452 84.3341 54.9067 85.1799 55.4377C86.0258 55.9687 87.001 56.2392 88.1055 56.2392C89.3394 56.2392 90.4042 55.9387 91.2998 55.3175C92.1953 54.6962 92.8023 53.8847 93.1108 52.8427H95.509C95.2801 53.9548 94.8124 54.9367 94.1159 55.7683C93.4193 56.5999 92.5436 57.2512 91.5087 57.7221C90.4738 58.183 89.3195 58.4235 88.0657 58.4235L88.0558 58.4135Z" fill="white"/>
<path d="M95.7378 43.4647V41.3706H108.027V43.4647H95.7378ZM103.022 42.4226V58.1632H100.763V42.4226H103.022Z" fill="white"/>
<path d="M76.3334 28.2347C76.3334 31.8216 74.1442 32.6332 72.4327 32.6332C70.7211 32.6332 68.5319 31.8216 68.5319 28.2347V13.2656H28.5989V37.3123H42.7292V32.4028H33.9127V27.6235H41.0475V22.7841H33.9127V18.1752H50.063V37.3123H55.3768V18.1752H63.2181V28.2046C63.2181 34.3666 67.3179 37.6529 72.4327 37.6529C77.5474 37.6529 81.6472 34.3666 81.6472 28.2046V13.2656H76.3334V28.2347Z" fill="#2A9E69"/>
<path d="M100.295 21.592C100.295 16.4821 96.7925 13.2559 91.7175 13.2559H83.0403V37.3025H88.3541V29.5475H91.2498L95.9566 37.3025H101.579L96.1257 28.6357C98.713 27.3833 100.295 24.9786 100.295 21.592ZM91.1801 24.9786H88.3541V18.1654H91.1801C93.3295 18.1654 94.9117 19.017 94.9117 21.582C94.9117 24.147 93.3295 24.9686 91.1801 24.9686V24.9786Z" fill="#2A9E69"/>
<path d="M118.436 28.5355H118.267L108.276 13.2559H102.962V37.3125H108.276V22.0329H108.445L118.436 37.3125H123.75V13.2559H118.436V28.5355Z" fill="#2A9E69"/>
<path d="M135.979 23.2153L134.367 22.574C131.879 21.5621 131.272 20.7405 131.272 19.6984C131.272 18.3458 132.387 17.6645 133.83 17.6645C135.273 17.6645 136.517 18.446 137.561 20.2695L141.502 18.0352C140.358 15.4903 137.84 12.9253 133.631 12.9253C129.422 12.9253 126.028 15.4702 126.028 19.6283C126.028 23.5259 128.954 25.2893 132.148 26.5718L133.631 27.1429C135.919 28.0546 136.696 28.736 136.696 30.1587C136.696 32.0223 135.253 32.8039 133.671 32.8039C131.422 32.8039 130.138 31.2408 129.461 29.6177L125.153 31.6115C126.058 35.1384 129.521 37.6432 133.73 37.6432C137.94 37.6432 142.208 35.2386 142.208 30.2289C142.208 26.9124 140.288 24.9486 135.989 23.2153H135.979Z" fill="#2A9E69"/>
<path d="M25.2753 26.301C28.37 22.4636 27.2257 16.1814 22.9567 13.7366C21.4641 12.885 19.8819 12.4141 18.1604 12.4642C17.3046 12.4842 16.4488 12.4642 15.593 12.4642C15.5731 12.384 15.5433 12.2938 15.5234 12.2137C16.001 11.7628 16.4588 11.2919 16.9464 10.8711C17.2747 10.5905 17.225 10.3901 16.9464 10.1196C16.2697 9.46835 15.593 8.80707 14.9562 8.11572C14.588 7.70493 14.3691 7.77506 14.0108 8.13576C12.0804 10.1196 10.12 12.0834 8.1597 14.0272C7.80147 14.3879 7.84127 14.5783 8.1796 14.9089C10.1698 16.8827 12.1401 18.8666 14.0904 20.8605C14.4089 21.1911 14.6079 21.1811 14.9064 20.8605C15.5731 20.1491 16.2597 19.4577 16.9563 18.7964C17.2548 18.5059 17.2648 18.3055 16.9563 18.045C16.4588 17.6242 15.9712 17.1833 15.4836 16.7525C15.5433 16.6523 15.593 16.5521 15.6527 16.4519C16.5483 16.4519 17.4539 16.4319 18.3494 16.4519C20.9068 16.522 22.8075 18.2253 23.0662 20.5398C23.912 28.365 8.71695 24.9083 8.71695 24.9083V37.2422H14.0307V29.4872H16.9265L21.6332 37.2422H27.2555L22.0014 28.886C23.2652 28.3149 24.3598 27.4532 25.3051 26.291L25.2753 26.301Z" fill="#2A9E69"/>
</svg>
